<?xml version="1.0" encoding="UTF-8"?><svg id="Layer_2" xmlns="http://www.w3.org/2000/svg" xmlns:xlink="http://www.w3.org/1999/xlink" viewBox="0 0 45 45"><defs><style>.cls-1{fill:none;}.cls-2{fill:url(#Unnamed_Pattern);}</style><pattern id="Unnamed_Pattern" x="0" y="0" width="45" height="45" patternTransform="translate(-.1 45.1)" patternUnits="userSpaceOnUse" viewBox="0 0 45 45"><g><rect class="cls-1" y="0" width="45" height="45"/><g><g><circle cx="27.1" cy="17.9" r="1.98"/><path d="M20.07,22.13c.77-.77,1.76-.32,2.44,.36,.68,.68,1.06,1.69,.37,2.41-.14,.14-.38,.39-.6,.61-.44-.44-1.08-1.08-1.4-1.4-.27-.27-.94-.93-1.4-1.39l.59-.59h0Z"/><circle cx="13.92" cy="31.08" r="1.98"/><path d="M33.04,.77c1.03-1.03,2.7-1.03,3.73,0l7.46,7.46c1.03,1.03,1.03,2.7,0,3.73L11.96,44.23c-1.03,1.03-2.7,1.03-3.73,0L.77,36.77c-1.03-1.03-1.03-2.7,0-3.73L33.04,.77h0ZM12.24,35.03c-.43-.61-1.34-1.06-2.63-.46-.63,.29-1.24,.53-1.43,.61-.18,.02-.29-.1-.33-.15-.06-.08-.17-.28,0-.6,.37-.68,1.24-.79,1.26-.79,.36-.03,.63-.35,.6-.71-.03-.36-.35-.63-.71-.6-.06,0-1.6,.15-2.31,1.48-.36,.67-.32,1.44,.11,2.01,.4,.53,1.05,.78,1.7,.64,.03,0,.07-.02,.1-.03,.03-.01,.77-.3,1.56-.66,.22-.1,.77-.31,1,.02,.17,.25,.13,.71-.23,1.08-.37,.37-.88,.58-1.35,.55-.36-.02-.67,.26-.69,.63-.02,.36,.26,.67,.63,.69,.84,.04,1.72-.31,2.35-.94,.79-.79,.94-1.95,.38-2.76h0Zm4.01-6.29c-1.29-1.29-3.38-1.29-4.66,0s-1.29,3.38,0,4.66,3.38,1.29,4.66,0,1.29-3.38,0-4.66Zm4.81-1.09c-.26-.26-.67-.25-.93,0,0,0,0,0,0,0-.29,.29-.59,.6-.83,.84l-3.26-3.26c-.26-.26-.67-.26-.93,0-.26,.26-.26,.67,0,.93l3.73,3.73c.23,.23,.58,.26,.85,.07,.04-.03,.07-.05,.48-.46,.2-.2,.49-.49,.91-.92,.26-.26,.25-.68,0-.93Zm2.76-1.84c1.1-1.14,.94-2.93-.39-4.26-1.39-1.39-3.12-1.54-4.3-.36l-1.06,1.06c-.12,.12-.19,.29-.19,.47,0,.17,.07,.34,.19,.47,0,0,1.44,1.43,1.86,1.86,.52,.52,1.88,1.87,1.88,1.87,.12,.12,.29,.19,.47,.19,.17,0,.34-.07,.46-.19h0s.78-.79,1.08-1.1h0Zm5.6-10.25c-1.29-1.29-3.38-1.29-4.66,0s-1.29,3.38,0,4.66,3.38,1.29,4.66,0c1.29-1.29,1.29-3.38,0-4.66Zm2.29-6.02c-.26-.26-.67-.26-.93,0-.26,.26-.26,.67,0,.93l2.56,2.56c.18,.18,.36,.46,.16,1.05-.06,.18-.16,.35-.31,.5,0,0,0,0,0,0-.16,.16-.35,.27-.56,.31-.5,.11-.74,0-.94-.2l-2.57-2.57c-.26-.26-.67-.26-.93,0-.26,.26-.26,.67,0,.93l2.57,2.57c.56,.56,1.29,.75,2.16,.56,.46-.1,.86-.33,1.21-.67,0,0,0,0,0,0,.3-.3,.51-.64,.63-1.01,.39-1.19-.04-1.96-.48-2.4l-2.56-2.56Zm3.68-3.68c-.26-.26-.67-.26-.93,0l-2.06,2.06c-.26,.26-.26,.67,0,.93s.67,.26,.93,0l.56-.56,3.26,3.26c.26,.26,.67,.26,.93,0,.26-.26,.26-.67,0-.93l-3.26-3.26,.57-.57c.26-.26,.26-.67,0-.93Z"/></g><g><path d="M8.85,21.24c.6-6.55,5.83-11.79,12.39-12.39l-12.39,12.39Z"/><path d="M36.15,23.76c-.6,6.55-5.83,11.79-12.39,12.39l12.39-12.39Z"/></g><g><path d="M.98,29.1c-.64-2.09-.98-4.3-.98-6.6C0,10.07,10.07,0,22.5,0,24.8,0,27.01,.35,29.1,.98l-5.23,5.23c-.45-.04-.91-.06-1.37-.06C13.49,6.15,6.15,13.49,6.15,22.5c0,.46,.02,.92,.06,1.37L.98,29.1Z"/><path d="M44.02,15.9c.64,2.09,.98,4.3,.98,6.6,0,12.43-10.07,22.5-22.5,22.5-2.3,0-4.51-.35-6.6-.98l5.23-5.23c.45,.04,.91,.06,1.37,.06,9.01,0,16.35-7.33,16.35-16.35,0-.46-.02-.92-.06-1.37l5.23-5.23Z"/></g></g></g></pattern></defs><g id="Capa_1"><g><g><circle class="cls-2" cx="27.1" cy="17.9" r="1.98"/><path class="cls-2" d="M20.07,22.13l-.59,.59c.46,.46,1.13,1.12,1.4,1.39,.32,.32,.96,.96,1.4,1.4,.22-.22,.46-.47,.6-.61,.69-.71,.31-1.72-.37-2.41-.68-.68-1.67-1.13-2.44-.36h0Z"/><circle class="cls-2" cx="13.92" cy="31.08" r="1.98"/><path class="cls-2" d="M33.04,.77L.77,33.04c-1.03,1.03-1.03,2.7,0,3.73l7.46,7.46c1.03,1.03,2.7,1.03,3.73,0L44.23,11.96c1.03-1.03,1.03-2.7,0-3.73L36.77,.77c-1.03-1.03-2.7-1.03-3.73,0h0ZM12.24,35.03c.57,.81,.41,1.98-.38,2.76-.63,.63-1.51,.98-2.35,.94-.36-.02-.64-.33-.63-.69,.02-.36,.33-.64,.69-.63,.48,.02,.98-.18,1.35-.55,.36-.36,.4-.83,.23-1.08-.23-.33-.77-.12-1-.02-.79,.37-1.53,.65-1.56,.66-.03,.01-.07,.02-.1,.03-.65,.14-1.3-.11-1.7-.64-.43-.57-.47-1.34-.11-2.01,.71-1.33,2.24-1.47,2.31-1.48,.36-.03,.68,.24,.71,.6,.03,.36-.23,.68-.6,.71-.02,0-.9,.11-1.26,.79-.17,.31-.05,.52,0,.6,.04,.05,.15,.17,.33,.15,.19-.07,.8-.32,1.43-.61,1.29-.59,2.2-.15,2.63,.46h0Zm4.01-1.62c-1.29,1.29-3.38,1.29-4.66,0s-1.29-3.38,0-4.66,3.38-1.29,4.66,0,1.29,3.38,0,4.66Zm4.82-4.82c-.42,.43-.71,.72-.91,.92-.42,.42-.45,.44-.48,.46-.26,.19-.62,.15-.85-.07l-3.73-3.73c-.26-.26-.26-.67,0-.93,.26-.26,.67-.26,.93,0l3.26,3.26c.24-.24,.55-.55,.83-.84,0,0,0,0,0,0,.26-.26,.67-.26,.93,0,.26,.26,.26,.67,0,.93Zm2.76-2.77c-.3,.31-1.05,1.06-1.08,1.09h0c-.12,.12-.29,.19-.46,.19-.17,0-.34-.07-.47-.19,0,0-1.36-1.35-1.88-1.87-.43-.43-1.86-1.86-1.86-1.86-.12-.12-.19-.29-.19-.47,0-.18,.07-.34,.19-.47l1.06-1.06c1.18-1.18,2.91-1.04,4.3,.36,1.33,1.33,1.49,3.12,.39,4.26h0Zm5.6-5.58c-1.29,1.29-3.38,1.29-4.66,0s-1.29-3.38,0-4.66,3.38-1.29,4.66,0c1.29,1.29,1.29,3.38,0,4.66Zm4.85-8.12c.44,.44,.88,1.21,.48,2.4-.12,.38-.34,.72-.63,1.01,0,0,0,0,0,0-.34,.34-.75,.57-1.21,.67-.87,.19-1.6,0-2.16-.56l-2.57-2.57c-.26-.26-.26-.67,0-.93,.26-.26,.67-.26,.93,0l2.57,2.57c.2,.2,.44,.31,.94,.2,.21-.05,.4-.15,.56-.31,0,0,0,0,0,0,.15-.15,.25-.31,.31-.5,.2-.59,.02-.88-.16-1.05l-2.56-2.56c-.26-.26-.26-.67,0-.93,.26-.26,.67-.26,.93,0l2.56,2.56Zm1.11-5.31l-.57,.57,3.26,3.26c.26,.26,.26,.67,0,.93-.26,.26-.67,.26-.93,0l-3.26-3.26-.56,.56c-.26,.26-.67,.26-.93,0s-.26-.67,0-.93l2.06-2.06c.26-.26,.67-.26,.93,0,.26,.26,.26,.67,0,.93Z"/></g><g><path class="cls-2" d="M21.24,8.85c-6.55,.6-11.79,5.83-12.39,12.39l12.39-12.39Z"/><path class="cls-2" d="M23.76,36.15c6.55-.6,11.79-5.83,12.39-12.39l-12.39,12.39Z"/></g><g><path class="cls-2" d="M6.21,23.87c-.04-.45-.06-.91-.06-1.37C6.15,13.49,13.49,6.15,22.5,6.15c.46,0,.92,.02,1.37,.06L29.1,.98C27.01,.35,24.8,0,22.5,0,10.07,0,0,10.07,0,22.5c0,2.3,.35,4.51,.98,6.6l5.23-5.23Z"/><path class="cls-2" d="M38.79,21.13c.04,.45,.06,.91,.06,1.37,0,9.01-7.33,16.35-16.35,16.35-.46,0-.92-.02-1.37-.06l-5.23,5.23c2.09,.64,4.3,.98,6.6,.98,12.43,0,22.5-10.07,22.5-22.5,0-2.3-.35-4.51-.98-6.6l-5.23,5.23Z"/></g></g></g></svg>