<?xml version="1.0" encoding="UTF-8"?><svg id="Layer_2" xmlns="http://www.w3.org/2000/svg" viewBox="0 0 45 45"><g id="Layer_1-2"><g id="_12"><path d="M0,35.36c0,.63,.37,1.2,.94,1.46l17.45,8.18,.08-21.99L0,14.48v20.87Z"/><path d="M28.99,18.91l-8.9,4.11-.09,21.98,17.63-8.18c.57-.26,.94-.83,.94-1.46v-14.94c-1.02,.3-2.1,.47-3.21,.47-2.36,0-4.56-.74-6.37-1.99Z"/><path d="M24.11,9.64c0-.91,.12-1.79,.33-2.64l-4.48-2.04c-.42-.19-.91-.19-1.33,0C18.62,4.97,.86,13.06,.81,13.09l18.48,8.53,8.32-3.84c-2.15-2.05-3.5-4.93-3.5-8.13Z"/><path d="M35.36,0c-5.33,0-9.64,4.32-9.64,9.64s4.32,9.64,9.64,9.64,9.64-4.32,9.64-9.64S40.68,0,35.36,0Zm0,8.84c1.77,0,3.21,1.44,3.21,3.21,0,1.49-1.03,2.74-2.41,3.1v.11c0,.44-.36,.8-.8,.8s-.8-.36-.8-.8v-.11c-1.38-.36-2.41-1.61-2.41-3.1,0-.44,.36-.8,.8-.8s.8,.36,.8,.8c0,.89,.72,1.61,1.61,1.61s1.61-.72,1.61-1.61-.72-1.61-1.61-1.61c-1.77,0-3.21-1.44-3.21-3.21,0-1.49,1.03-2.74,2.41-3.1v-.11c0-.44,.36-.8,.8-.8s.8,.36,.8,.8v.11c1.38,.36,2.41,1.61,2.41,3.1,0,.44-.36,.8-.8,.8s-.8-.36-.8-.8c0-.89-.72-1.61-1.61-1.61s-1.61,.72-1.61,1.61,.72,1.61,1.61,1.61Z"/></g></g></svg>